<?xml version="1.0" encoding="UTF-8"?>
<svg xmlns="http://www.w3.org/2000/svg" xmlns:xlink="http://www.w3.org/1999/xlink" width="50px" height="50px" viewBox="0 0 50 50" version="1.1">
<g id="surface1">
<path style=" stroke:none;fill-rule:nonzero;fill:rgb(27.058824%,38.039216%,61.568627%);fill-opacity:1;" d="M 25 0 C 38.804688 0 50 11.195312 50 25 C 50 38.804688 38.804688 50 25 50 C 11.195312 50 0 38.804688 0 25 C 0 11.195312 11.195312 0 25 0 Z M 25 0 "/>
<path style=" stroke:none;fill-rule:nonzero;fill:rgb(100%,100%,100%);fill-opacity:1;" d="M 28.96875 6 C 22.191406 6 19.953125 9.109375 19.953125 14.441406 L 19.953125 18.667969 L 15.5 18.667969 L 15.5 25.003906 L 19.953125 25.003906 L 19.953125 44 L 28.164062 44 L 28.164062 25.003906 L 33.746094 25.003906 L 34.496094 18.667969 L 28.164062 18.667969 L 28.164062 14.902344 C 28.164062 13.199219 28.539062 12.332031 31.179688 12.332031 L 34.496094 12.332031 L 34.496094 6 Z M 28.96875 6 "/>
</g>
</svg>
