<?xml version="1.0" encoding="UTF-8"?>
<svg xmlns="http://www.w3.org/2000/svg" xmlns:xlink="http://www.w3.org/1999/xlink" width="56px" height="56px" viewBox="0 0 56 56" version="1.1">
<g id="surface1">
<path style=" stroke:none;fill-rule:evenodd;fill:rgb(0%,0%,0%);fill-opacity:1;" d="M 28 3.5 C 14.46875 3.5 3.5 14.746094 3.5 28.625 C 3.5 39.722656 10.519531 49.128906 20.253906 52.457031 C 21.480469 52.6875 21.933594 51.910156 21.933594 51.246094 C 21.933594 50.640625 21.90625 49.066406 21.894531 46.964844 C 15.082031 48.484375 13.640625 43.597656 13.640625 43.597656 C 12.519531 40.699219 10.917969 39.921875 10.917969 39.921875 C 8.691406 38.359375 11.078125 38.390625 11.078125 38.390625 C 13.542969 38.566406 14.832031 40.984375 14.832031 40.984375 C 17.019531 44.824219 20.5625 43.71875 21.964844 43.074219 C 22.183594 41.453125 22.816406 40.339844 23.515625 39.714844 C 18.078125 39.078125 12.359375 36.925781 12.359375 27.300781 C 12.359375 24.550781 13.3125 22.3125 14.875 20.5625 C 14.625 19.925781 13.78125 17.371094 15.113281 13.910156 C 15.113281 13.910156 17.171875 13.234375 21.855469 16.484375 C 23.8125 15.925781 25.902344 15.652344 27.988281 15.640625 C 30.066406 15.652344 32.167969 15.925781 34.125 16.484375 C 38.808594 13.234375 40.847656 13.910156 40.847656 13.910156 C 42.1875 17.371094 41.34375 19.925781 41.09375 20.5625 C 42.65625 22.324219 43.609375 24.566406 43.609375 27.300781 C 43.609375 36.949219 37.875 39.066406 32.417969 39.691406 C 33.292969 40.46875 34.082031 42 34.082031 44.339844 C 34.082031 47.699219 34.046875 50.410156 34.046875 51.230469 C 34.046875 51.902344 34.484375 52.6875 35.734375 52.433594 C 45.488281 49.121094 52.5 39.714844 52.5 28.625 C 52.5 14.746094 41.53125 3.5 28 3.5 Z M 28 3.5 "/>
</g>
</svg>
