<?xml version="1.0" encoding="UTF-8"?>
<svg xmlns="http://www.w3.org/2000/svg" xmlns:xlink="http://www.w3.org/1999/xlink" width="46px" height="42px" viewBox="0 0 45 42" version="1.1">
<g id="surface1">
<path style=" stroke:none;fill-rule:nonzero;fill:rgb(92.54902%,40.392157%,16.470588%);fill-opacity:1;" d="M 43.949219 24.011719 L 41.535156 16.167969 L 36.765625 0.597656 C 36.523438 -0.203125 35.457031 -0.203125 35.203125 0.597656 L 30.429688 16.152344 L 14.566406 16.152344 L 9.796875 0.597656 C 9.554688 -0.203125 8.480469 -0.203125 8.230469 0.597656 L 3.46875 16.152344 L 1.054688 24.011719 C 0.835938 24.726562 1.070312 25.511719 1.648438 25.960938 L 22.5 41.996094 L 43.351562 25.960938 C 43.925781 25.515625 44.171875 24.730469 43.949219 24.011719 Z M 43.949219 24.011719 "/>
<path style=" stroke:none;fill-rule:nonzero;fill:rgb(86.666667%,24.313725%,16.470588%);fill-opacity:1;" d="M 22.503906 41.988281 L 30.4375 16.152344 L 14.570312 16.152344 Z M 22.503906 41.988281 "/>
<path style=" stroke:none;fill-rule:nonzero;fill:rgb(92.54902%,40.392157%,16.470588%);fill-opacity:1;" d="M 22.496094 41.988281 L 14.566406 16.152344 L 3.46875 16.152344 Z M 22.496094 41.988281 "/>
<path style=" stroke:none;fill-rule:nonzero;fill:rgb(96.470588%,64.313725%,12.54902%);fill-opacity:1;" d="M 3.460938 16.164062 L 1.050781 24.011719 C 0.832031 24.726562 1.066406 25.511719 1.644531 25.960938 L 22.496094 41.996094 Z M 3.460938 16.164062 "/>
<path style=" stroke:none;fill-rule:nonzero;fill:rgb(86.666667%,24.313725%,16.470588%);fill-opacity:1;" d="M 3.464844 16.164062 L 14.574219 16.164062 L 9.792969 0.605469 C 9.546875 -0.195312 8.480469 -0.195312 8.226562 0.605469 Z M 3.464844 16.164062 "/>
<path style=" stroke:none;fill-rule:nonzero;fill:rgb(92.54902%,40.392157%,16.470588%);fill-opacity:1;" d="M 22.503906 41.988281 L 30.4375 16.152344 L 41.546875 16.152344 Z M 22.503906 41.988281 "/>
<path style=" stroke:none;fill-rule:nonzero;fill:rgb(96.470588%,64.313725%,12.54902%);fill-opacity:1;" d="M 41.535156 16.164062 L 43.949219 24.007812 C 44.167969 24.722656 43.933594 25.507812 43.355469 25.957031 L 22.503906 41.980469 Z M 41.535156 16.164062 "/>
<path style=" stroke:none;fill-rule:nonzero;fill:rgb(86.666667%,24.313725%,16.470588%);fill-opacity:1;" d="M 41.542969 16.164062 L 30.433594 16.164062 L 35.203125 0.605469 C 35.445312 -0.195312 36.519531 -0.195312 36.769531 0.605469 Z M 41.542969 16.164062 "/>
</g>
</svg>
